<svg width="40" height="40" viewBox="0 0 40 40" fill="none" xmlns="http://www.w3.org/2000/svg">
<path d="M33.3333 8.33306C33.3333 10.7845 35.3264 12.7775 37.7778 12.7775V8.33306H33.3333ZM31.1111 8.33306H8.88889C8.88889 12.0136 5.90278 14.9997 2.22222 14.9997V23.8886C5.90278 23.8886 8.88889 26.8747 8.88889 30.5553H31.1111C31.1111 26.8747 34.0972 23.8886 37.7778 23.8886V14.9997C34.0972 14.9997 31.1111 12.0136 31.1111 8.33306ZM2.22222 30.5553H6.66667C6.66667 28.1039 4.67361 26.1108 2.22222 26.1108V30.5553ZM37.7778 26.1108C35.3264 26.1108 33.3333 28.1039 33.3333 30.5553H37.7778V26.1108ZM2.22222 8.33306V12.7775C4.67361 12.7775 6.66667 10.7845 6.66667 8.33306H2.22222ZM0 6.11084H40V32.7775H0V6.11084ZM24.4444 19.4442C24.4444 18.2654 23.9762 17.135 23.1427 16.3015C22.3092 15.468 21.1787 14.9997 20 14.9997C18.8213 14.9997 17.6908 15.468 16.8573 16.3015C16.0238 17.135 15.5556 18.2654 15.5556 19.4442C15.5556 20.6229 16.0238 21.7534 16.8573 22.5869C17.6908 23.4204 18.8213 23.8886 20 23.8886C21.1787 23.8886 22.3092 23.4204 23.1427 22.5869C23.9762 21.7534 24.4444 20.6229 24.4444 19.4442ZM13.3333 19.4442C13.3333 17.6761 14.0357 15.9804 15.286 14.7301C16.5362 13.4799 18.2319 12.7775 20 12.7775C21.7681 12.7775 23.4638 13.4799 24.714 14.7301C25.9643 15.9804 26.6667 17.6761 26.6667 19.4442C26.6667 21.2123 25.9643 22.908 24.714 24.1582C23.4638 25.4085 21.7681 26.1108 20 26.1108C18.2319 26.1108 16.5362 25.4085 15.286 24.1582C14.0357 22.908 13.3333 21.2123 13.3333 19.4442Z" fill="white"/>
</svg>
