<svg width="40" height="40" viewBox="0 0 40 40" fill="none" xmlns="http://www.w3.org/2000/svg">
<g clip-path="url(#clip0_58031_135)">
<path d="M31.7061 3.62705C32.0936 4.01455 32.0936 4.65205 31.7061 5.03955L28.2936 8.45205C27.7311 9.01455 26.9686 9.3333 26.1748 9.3333H18.9998C16.7936 9.3333 14.9998 11.127 14.9998 13.3333V19.3333C14.9998 20.4395 15.8936 21.3333 16.9998 21.3333C18.1061 21.3333 18.9998 20.4395 18.9998 19.3333V13.8333C18.9998 13.2833 19.4498 12.8333 19.9998 12.8333C20.5498 12.8333 20.9998 13.2833 20.9998 13.8333V15.3333H27.9998C30.2061 15.3333 31.9998 17.127 31.9998 19.3333C31.9998 20.8645 31.1436 22.1896 29.8811 22.8646C29.9561 23.1771 29.9998 23.5021 29.9998 23.8333C29.9998 25.7021 28.7186 27.2708 26.9811 27.7146C26.7936 29.7458 25.0811 31.3333 22.9998 31.3333H14.8311C14.5686 31.3333 14.3123 31.4396 14.1248 31.6271L10.7123 35.0395C10.3248 35.427 9.68731 35.427 9.2998 35.0395C8.91231 34.652 8.91231 34.0146 9.2998 33.6271L12.7123 30.2146C13.2748 29.6521 14.0373 29.3333 14.8311 29.3333H22.9998C24.1061 29.3333 24.9998 28.4396 24.9998 27.3333C24.9998 27.2208 24.9873 27.1083 24.9748 26.9958C24.9248 26.702 25.0061 26.4021 25.1998 26.1771C25.3936 25.9521 25.6748 25.8271 25.9748 25.8271H25.9998C27.1061 25.8271 27.9998 24.9333 27.9998 23.827C27.9998 23.4458 27.8936 23.0958 27.7123 22.7895C27.5436 22.5083 27.5186 22.1646 27.6561 21.8645C27.7936 21.5646 28.0623 21.3521 28.3811 21.2895C29.3061 21.1145 29.9998 20.302 29.9998 19.327C29.9998 18.2208 29.1061 17.327 27.9998 17.327H20.9998V19.327C20.9998 21.5333 19.2061 23.327 16.9998 23.327C14.7936 23.327 12.9998 21.5333 12.9998 19.327V13.3333C12.9998 10.0208 15.6873 7.3333 18.9998 7.3333H26.1686C26.4311 7.3333 26.6873 7.22705 26.8748 7.03955L30.2936 3.62705C30.6811 3.23955 31.3186 3.23955 31.7061 3.62705ZM7.84981 15.227C8.4248 13.6958 9.57481 12.5083 10.9998 11.8646V14.1833C10.4311 14.6271 9.98106 15.227 9.71856 15.927L8.08731 20.2771C7.9373 20.6771 7.6998 21.0396 7.39981 21.3458L1.70605 27.0395C1.31855 27.427 0.681055 27.427 0.293555 27.0395C-0.0939453 26.652 -0.0939453 26.0146 0.293555 25.6271L5.98731 19.9333C6.08731 19.8333 6.16855 19.7083 6.21855 19.577L7.84981 15.227ZM39.7123 11.627C40.0998 12.0145 40.0998 12.6521 39.7123 13.0395L33.9748 18.7708C33.8998 17.9895 33.6811 17.2458 33.3373 16.5833L38.2936 11.627C38.6811 11.2396 39.3186 11.2396 39.7061 11.627H39.7123Z" fill="white"/>
</g>
<defs>
<clipPath id="clip0_58031_135">
<rect width="40" height="32" fill="white" transform="translate(0 3.3335)"/>
</clipPath>
</defs>
</svg>
