<svg width="40" height="40" viewBox="0 0 40 40" fill="none" xmlns="http://www.w3.org/2000/svg">
<g clip-path="url(#clip0_58031_99)">
<path d="M7.77778 1.6665C8.38889 1.6665 8.88889 2.1665 8.88889 2.77762V6.11095H22.2222V2.77762C22.2222 2.1665 22.7222 1.6665 23.3333 1.6665C23.9444 1.6665 24.4444 2.1665 24.4444 2.77762V6.11095H26.6667C29.1181 6.11095 31.1111 8.104 31.1111 10.5554V15.0484C30.7431 15.0137 30.375 14.9998 30 14.9998C29.625 14.9998 29.2569 15.0137 28.8889 15.0484V14.9998H2.22222V32.7776C2.22222 34.0068 3.21528 34.9998 4.44444 34.9998H20.5694C21.2639 35.8401 22.0764 36.5901 22.9722 37.2221H4.44444C1.99306 37.2221 0 35.229 0 32.7776V10.5554C0 8.104 1.99306 6.11095 4.44444 6.11095H6.66667V2.77762C6.66667 2.1665 7.16667 1.6665 7.77778 1.6665ZM26.6667 8.33317H4.44444C3.21528 8.33317 2.22222 9.32623 2.22222 10.5554V12.7776H28.8889V10.5554C28.8889 9.32623 27.8958 8.33317 26.6667 8.33317ZM30 34.9998C32.0628 34.9998 34.0411 34.1804 35.4997 32.7218C36.9583 31.2632 37.7778 29.2849 37.7778 27.2221C37.7778 25.1593 36.9583 23.181 35.4997 21.7223C34.0411 20.2637 32.0628 19.4443 30 19.4443C27.9372 19.4443 25.9589 20.2637 24.5003 21.7223C23.0417 23.181 22.2222 25.1593 22.2222 27.2221C22.2222 29.2849 23.0417 31.2632 24.5003 32.7218C25.9589 34.1804 27.9372 34.9998 30 34.9998ZM30 17.2221C32.6522 17.2221 35.1957 18.2756 37.0711 20.151C38.9464 22.0264 40 24.5699 40 27.2221C40 29.8742 38.9464 32.4178 37.0711 34.2931C35.1957 36.1685 32.6522 37.2221 30 37.2221C27.3478 37.2221 24.8043 36.1685 22.9289 34.2931C21.0536 32.4178 20 30.211 20 27.2221C20 24.2331 21.0536 22.0264 22.9289 20.151C24.8043 18.2756 27.3478 17.2221 30 17.2221ZM30 21.6665C30.6111 21.6665 31.1111 22.1665 31.1111 22.7776V26.111H33.3333C33.9444 26.111 34.4444 26.611 34.4444 27.2221C34.4444 27.8332 33.9444 28.3332 33.3333 28.3332H30C29.3889 28.3332 28.8889 27.8332 28.8889 27.2221V22.7776C28.8889 22.1665 29.3889 21.6665 30 21.6665Z" fill="white"/>
<path d="M16.7708 16.6665C17.0784 16.6665 17.348 16.8657 17.4417 17.1558L18.9241 21.8228H22.5416C22.8433 21.8228 23.1099 22.0132 23.2066 22.2974C23.3033 22.5815 23.2095 22.895 22.9722 23.0796L20.4157 24.5708L20.1663 26.062L21.6575 30.7524C21.7513 31.0454 21.6429 31.3677 21.3909 31.5435C21.139 31.7192 20.7991 31.7105 20.556 31.523L16.7708 28.5728L12.9827 31.5171C12.7396 31.7075 12.4027 31.7163 12.1478 31.5376C11.8929 31.3589 11.7874 31.0425 11.8812 30.7466L13.3724 26.0562L9.54328 23.0796C9.30598 22.895 9.21223 22.5815 9.30891 22.2974C9.40559 22.0132 9.67219 21.8228 9.97395 21.8228H14.6175L16.0999 17.1558C16.1937 16.8657 16.4632 16.6665 16.7708 16.6665ZM16.7708 19.6899L15.8011 22.7397C15.7073 23.0327 15.4378 23.229 15.1302 23.229H12.0218L14.6234 25.2534C14.8548 25.4351 14.9515 25.7397 14.8607 26.021L13.9085 29.0181L16.3372 27.1284C16.5921 26.9321 16.9466 26.9321 17.2015 27.1284L19.6302 29.0181L18.678 26.021C18.5902 25.7397 18.6839 25.4351 18.9154 25.2534L21.5198 23.229H18.4114C18.1038 23.229 17.8343 23.0298 17.7405 22.7397L16.7708 19.6899Z" fill="white"/>
</g>
<defs>
<clipPath id="clip0_58031_99">
<rect width="40" height="35.5556" fill="white" transform="translate(0 1.6665)"/>
</clipPath>
</defs>
</svg>
