<svg width="214" height="56" viewBox="0 0 214 56" fill="none" xmlns="http://www.w3.org/2000/svg">
<path d="M21.8418 35.5467L0.788501 15.5801C0.301447 15.6901 0.00292969 16.0675 0.00292969 16.6806V54.8844C0.00292969 55.4032 0.207178 55.7177 0.474273 55.8277L21.8418 35.5467Z" fill="url(#paint0_linear_57998_5168)"/>
<path d="M18.8537 25.1712C18.8223 25.2498 2.81235 16.3513 1.88537 15.8954C0.942686 15.298 0 15.6281 0 16.6815V55.0425C0 55.8915 0.675592 56.2374 1.41403 55.8286C2.30958 55.3255 18.8223 46.1597 18.8537 46.0811L27.6521 41.2074C27.605 41.2703 35.0522 37.1355 35.9792 36.6481C37.0476 36.035 36.9376 35.2803 36.1363 34.9187C35.2722 34.4156 27.605 30.1236 27.6521 30.045L18.8537 25.1712Z" fill="white"/>
<path d="M1.90075 15.7532C1.49226 15.5488 1.09947 15.4859 0.769531 15.5645L21.8386 35.5625L27.6675 30.0442L18.8848 25.1705C18.8848 25.1705 10.6049 20.5797 5.60865 17.8127L1.90075 15.7532Z" fill="white"/>
<path d="M149.513 42.2915L147.769 43.9423C147.361 44.1624 146.968 44.4297 146.575 44.6026C145.365 45.1529 144.14 45.2944 143.04 45.2944C141.878 45.2944 140.055 45.2158 138.201 43.8637C135.624 42.04 134.493 38.8799 134.493 36.1443C134.493 30.4688 139.081 27.686 142.836 27.686C144.14 27.686 145.491 28.0162 146.575 28.7079C148.398 29.9185 148.869 31.4907 149.121 32.3397L140.573 35.8142L137.777 36.0343C138.688 40.6879 141.815 43.392 145.271 43.392C146.999 43.392 148.272 42.8261 149.45 42.2444C149.45 42.2444 149.686 42.1186 149.513 42.2915ZM144.297 32.9528C144.988 32.7013 145.334 32.4812 145.334 31.9623C145.334 30.4845 143.716 28.7866 141.768 28.7866C140.338 28.7866 137.635 29.9342 137.635 33.9118C137.635 34.5407 137.714 35.201 137.745 35.8613L144.297 32.9528Z" fill="white"/>
<path d="M131.664 42.0871C131.664 43.5021 131.916 43.7222 133.11 43.8322C133.738 43.9108 134.351 43.9423 134.964 44.0052L133.628 44.807H127.234C128.067 43.7065 128.224 43.5964 128.224 42.8732V42.0557L128.208 20.3597H125.38L128.098 19.0391H133.283C132.152 19.6994 131.822 20.0924 131.68 21.3659L131.664 42.0871Z" fill="white"/>
<path d="M121.751 29.4783C122.584 30.1701 124.312 31.6322 124.312 34.3992C124.312 37.1034 122.804 38.3768 121.28 39.5874C120.808 40.0591 120.259 40.5779 120.259 41.3797C120.259 42.1815 120.808 42.6217 121.201 42.9519L122.505 43.9738C124.092 45.3258 125.538 46.5679 125.538 49.0833C125.538 52.5107 122.238 55.9852 116.016 55.9852C110.769 55.9852 108.239 53.4697 108.239 50.7656C108.239 49.4449 108.883 47.5898 111.036 46.3163C113.283 44.9328 116.315 44.7441 117.949 44.6341C117.446 43.9738 116.865 43.282 116.865 42.1501C116.865 41.5369 117.053 41.1596 117.226 40.7194C116.833 40.7508 116.425 40.798 116.064 40.798C112.23 40.798 110.062 37.9052 110.062 35.0596C110.062 33.3773 110.816 31.5222 112.387 30.1701C114.445 28.4564 116.912 28.1577 118.86 28.1577H126.323L123.998 29.4783H121.751ZM119.206 45.656C118.907 45.6088 118.734 45.6088 118.373 45.6088C118.043 45.6088 116.064 45.6874 114.54 46.2063C113.738 46.505 111.397 47.4011 111.397 50.0424C111.397 52.6836 113.911 54.586 117.823 54.586C121.327 54.586 123.181 52.8723 123.181 50.5769C123.181 48.6589 121.971 47.6527 119.206 45.656ZM120.227 38.6127C121.06 37.7794 121.138 36.616 121.138 35.9557C121.138 33.3302 119.599 29.2582 116.598 29.2582C115.671 29.2582 114.65 29.7299 114.068 30.4688C113.455 31.2235 113.283 32.2139 113.283 33.1572C113.283 35.5941 114.697 39.6346 117.792 39.6346C118.687 39.6346 119.661 39.1944 120.227 38.6127Z" fill="white"/>
<path d="M99.1893 45.2944C93.4232 45.2944 90.3438 40.7351 90.3438 36.616C90.3438 31.8051 94.2245 27.686 99.7392 27.686C105.065 27.686 108.412 31.9152 108.412 36.3644C108.412 40.7036 105.112 45.2944 99.1893 45.2944ZM103.698 42.323C104.578 41.1438 104.798 39.666 104.798 38.2353C104.798 34.9809 103.274 28.7866 98.7494 28.7866C97.5553 28.7866 96.3455 29.2582 95.4657 30.0443C94.0516 31.3335 93.7846 32.9528 93.7846 34.5407C93.7846 38.1882 95.5599 44.1939 99.9749 44.1939C101.42 44.1939 102.866 43.5021 103.698 42.323Z" fill="white"/>
<path d="M79.8641 45.2944C74.098 45.2944 71.0186 40.7351 71.0186 36.616C71.0186 31.8051 74.8993 27.686 80.414 27.686C85.7402 27.686 89.0867 31.9152 89.0867 36.3644C89.0867 40.7036 85.7873 45.2944 79.8641 45.2944ZM84.3733 42.323C85.2531 41.1438 85.4731 39.666 85.4731 38.2353C85.4731 34.9809 83.9334 28.7866 79.4242 28.7866C78.2144 28.7866 77.0203 29.2582 76.1405 30.0443C74.7107 31.3335 74.4594 32.9528 74.4594 34.5407C74.4594 38.1882 76.2505 44.1939 80.6497 44.1939C82.0951 44.1939 83.5406 43.5021 84.3733 42.323Z" fill="white"/>
<path d="M68.6305 44.2097L63.7442 45.3416C61.7646 45.6561 59.9892 45.939 58.1038 45.939C48.6769 45.9233 45.0947 38.9429 45.0947 33.4717C45.0947 26.8057 50.1852 20.6113 58.8894 20.6113C60.7276 20.6113 62.503 20.8786 64.1213 21.3345C66.6822 22.0577 67.8763 22.9539 68.6305 23.4727L65.7867 26.1925L64.5926 26.4598L65.441 25.092C64.2784 23.9601 62.1573 21.8533 58.1352 21.8533C52.7462 21.8533 48.6769 25.9724 48.6769 31.9939C48.6769 38.4555 53.3118 44.5398 60.759 44.5398C62.9429 44.5398 64.0741 44.0996 65.0954 43.6908V38.1411L59.942 38.4241L62.6758 36.9462H69.9188L69.0389 37.8109C68.8033 38.0153 68.7719 38.0782 68.6933 38.3612C68.6619 38.6756 68.6305 39.6661 68.6305 40.0277V44.2097Z" fill="white"/>
<path d="M160.055 42.4487V51.7403H158.217V28.1105H160.055V30.7989C161.249 29.0538 163.449 27.686 165.978 27.686C170.535 27.686 173.614 31.1605 173.614 36.6474C173.614 42.1029 170.55 45.6403 165.978 45.6403C163.59 45.6403 161.438 44.3982 160.055 42.4487ZM171.729 36.7889C171.729 32.6069 169.576 29.4154 165.743 29.4154C163.37 29.4154 161.092 31.302 160.102 32.9528V40.5936C161.092 42.2444 163.37 44.1939 165.743 44.1939C169.576 44.1939 171.729 40.9709 171.729 36.7889Z" fill="white"/>
<path d="M176.128 21.5547H178.013V45.2945H176.128V21.5547Z" fill="white"/>
<path d="M198.517 50.1052C198.91 50.2782 199.585 50.3882 200.009 50.3882C201.141 50.3882 201.91 49.9323 202.617 48.2972L203.953 45.2472L196.71 28.0005H198.768L204.974 42.9519L211.133 28.0005H213.207L204.377 48.8632C203.466 51.0171 202.02 52.0547 200.041 52.0547C199.444 52.0547 198.658 51.9447 198.203 51.8032L198.517 50.1052Z" fill="white"/>
<path d="M193.317 45.2787C193.191 44.6812 193.097 44.1624 193.034 43.7222C192.971 43.282 192.94 42.8418 192.94 42.3859C192.311 43.3134 191.416 44.0995 190.253 44.7127C189.106 45.3258 188.006 45.6245 186.514 45.6245C184.707 45.6245 183.309 45.1843 182.319 44.2725C181.329 43.3763 180.826 42.15 180.826 40.6093C180.826 39.0686 181.549 37.8108 182.994 36.8518C184.44 35.8928 186.309 35.4054 188.619 35.4054H192.924V33.2673C192.924 32.041 192.5 31.0662 191.667 30.3745C190.834 29.667 189.656 29.3211 188.132 29.3211C186.734 29.3211 185.602 29.6513 184.738 30.2801C183.89 30.9247 183.45 31.7265 183.45 32.6855H181.565L181.533 32.5912C181.47 31.2863 182.052 30.1543 183.324 29.1639C184.581 28.1734 186.215 27.686 188.242 27.686C190.253 27.686 191.887 28.1734 193.113 29.1482C194.338 30.1072 194.951 31.5064 194.951 33.3144V41.8042C194.951 42.4173 194.982 42.999 195.061 43.5807C195.139 44.1624 195.265 44.7284 195.422 45.2787H193.317ZM186.749 44.0366C188.321 44.0366 189.452 43.675 190.599 42.9833C191.746 42.2915 192.515 41.3797 192.924 40.2791V36.9619H188.588C186.938 36.9619 185.571 37.3235 184.487 38.0781C183.403 38.817 182.869 39.7132 182.869 40.7665C182.869 41.757 183.214 42.5431 183.906 43.1405C184.613 43.7379 185.555 44.0366 186.749 44.0366Z" fill="white"/>
<path d="M44.4668 5.56549C44.4668 2.18532 47.1692 0 50.5314 0C52.7781 0 54.255 1.00619 55.182 2.23249L53.5323 3.1129C52.9038 2.31109 51.8197 1.68223 50.5314 1.68223C48.2533 1.68223 46.5407 3.30156 46.5407 5.56549C46.5564 7.8137 48.2533 9.44876 50.5314 9.44876C51.7098 9.44876 52.7467 8.94567 53.2652 8.47401V6.82323H49.8087V5.15673H55.2763V9.16577C54.145 10.3449 52.5268 11.131 50.5314 11.131C47.1692 11.1467 44.4668 8.94567 44.4668 5.56549Z" fill="white"/>
<path d="M57.9004 10.9894V0.172852H65.9289V1.83936H59.9586V4.6221H65.8032V6.30433H59.9586V9.3229H65.9289V10.9894H57.9004Z" fill="white"/>
<path d="M71.3805 10.9894V1.83936H67.8926V0.172852H76.8952V1.83936H73.4073V10.9894H71.3805Z" fill="white"/>
<path d="M84.1064 0.172852H86.0704V10.9894H84.1064V0.172852Z" fill="white"/>
<path d="M91.695 10.9894V1.83936H88.207V0.172852H97.2097V1.83936H93.7217V10.9894H91.695Z" fill="white"/>
<path d="M103.935 5.58112C103.935 2.37389 106.401 0.015625 109.921 0.015625C113.409 0.015625 115.891 2.37389 115.891 5.58112C115.891 8.78835 113.393 11.1466 109.921 11.1466C106.401 11.1466 103.935 8.78835 103.935 5.58112ZM113.754 5.48679C113.754 3.28575 112.246 1.63496 109.905 1.63496C107.548 1.63496 106.056 3.28575 106.056 5.48679C106.056 7.67211 107.548 9.33861 109.905 9.33861C112.246 9.33861 113.754 7.68783 113.754 5.48679Z" fill="white"/>
<path d="M126.213 10.9894L120.196 3.25431V10.9894H118.169V0.172852H120.243L126.135 7.67212V0.172852H128.161V10.9894H126.213Z" fill="white"/>
<defs>
<linearGradient id="paint0_linear_57998_5168" x1="14.4136" y1="0.823029" x2="-9.57699" y2="51.7356" gradientUnits="userSpaceOnUse">
<stop stop-color="#064AA2"/>
<stop offset="1" stop-color="#63FFD4"/>
</linearGradient>
</defs>
</svg>
