<svg width="120" height="61" viewBox="0 0 120 61" fill="none" xmlns="http://www.w3.org/2000/svg">
<path d="M106.635 1.50042C109.129 4.30874 111.518 13.2219 101.129 26.4081C97.9279 30.3635 92.69 40.5508 97.3501 49.6562C102.01 58.7616 108.378 59.6151 110.98 58.9036C114.649 57.9148 120.692 53.1996 115.514 42.2496C110.336 31.2996 88.9237 35.8627 78.8647 39.513L65.4844 46.5182C60.257 49.0703 48.1264 52.5258 41.4231 45.9307C34.7198 39.3356 34.0155 34.1181 38.0802 30.1137C44.3026 27.5486 54.6458 33.2605 38.4735 48.9609C34.1571 52.329 20.7196 56.7348 1.50045 47.4139" stroke="white" stroke-width="3" stroke-linecap="round"/>
</svg>
