<svg width="40" height="40" viewBox="0 0 40 40" fill="none" xmlns="http://www.w3.org/2000/svg">
<g clip-path="url(#clip0_58031_197)">
<path d="M6.13081 14.9709C4.57456 17.9272 5.98081 21.5834 9.12456 22.7272C12.2683 23.8709 15.6933 21.9772 16.4058 18.7084L17.0871 15.5772L7.62456 12.1334L6.13081 14.9709ZM17.5121 13.6022L18.7121 8.06468L11.2058 5.33343L8.56206 10.3459L17.5121 13.6022ZM4.36206 14.0397L9.43081 4.40218C9.89956 3.51468 10.9433 3.11468 11.8871 3.45218L19.3996 6.18968C19.6246 6.27093 19.8246 6.38968 19.9996 6.53968C20.1746 6.38968 20.3746 6.27093 20.5996 6.18968L28.1121 3.45218C29.0496 3.10843 30.0996 3.51468 30.5683 4.40218L35.6433 14.0397C37.6058 17.7709 36.1058 22.3084 32.4808 24.2022L35.1058 31.4147L38.6621 30.1209C39.1808 29.9334 39.7558 30.2022 39.9433 30.7209C40.1308 31.2397 39.8621 31.8147 39.3433 32.0022L34.8496 33.6397L30.3496 35.2709C29.8308 35.4584 29.2558 35.1897 29.0683 34.6709C28.8808 34.1522 29.1496 33.5772 29.6683 33.3897L33.2246 32.0959L30.5996 24.8834C26.6058 25.7647 22.5371 23.2522 21.6433 19.1334L19.9996 11.5709L18.3621 19.1334C17.4683 23.2522 13.3996 25.7709 9.40581 24.8834L6.78081 32.0959L10.3371 33.3959C10.8558 33.5834 11.1246 34.1584 10.9371 34.6772C10.7496 35.1959 10.1746 35.4647 9.65581 35.2772L0.655812 32.0022C0.137062 31.8147 -0.131688 31.2397 0.0558119 30.7209C0.243312 30.2022 0.818312 29.9334 1.33706 30.1209L4.89331 31.4147L7.51831 24.2022C3.89331 22.3084 2.39331 17.7709 4.35581 14.0397H4.36206ZM33.8683 14.9709L32.3746 12.1334L22.9121 15.5772L23.5933 18.7084C24.2996 21.9772 27.7308 23.8647 30.8746 22.7272C34.0183 21.5897 35.4246 17.9334 33.8683 14.9709ZM22.4871 13.6022L31.4371 10.3459L28.7933 5.33343L21.2871 8.06468L22.4871 13.6022Z" fill="white"/>
</g>
<defs>
<clipPath id="clip0_58031_197">
<rect width="40" height="32" fill="white" transform="translate(0 3.3335)"/>
</clipPath>
</defs>
</svg>
