<svg width="211" height="56" viewBox="0 0 211 56" fill="none" xmlns="http://www.w3.org/2000/svg">
<path d="M33.346 26.0461C33.294 19.8546 38.4262 16.8453 38.6516 16.707C35.7387 12.487 31.2307 11.899 29.6529 11.8471C25.8731 11.4494 22.1973 14.1128 20.2727 14.1128C18.3135 14.1128 15.3312 11.899 12.141 11.9509C8.03172 12.0201 4.16522 14.3895 2.06726 18.0905C-2.28472 25.6137 0.95759 36.6824 5.13618 42.7701C7.23414 45.7448 9.66154 49.0827 12.8692 48.9616C15.9901 48.8406 17.1691 46.9727 20.9316 46.9727C24.6767 46.9727 25.769 48.9616 29.0287 48.8925C32.3924 48.8406 34.4903 45.9005 36.5189 42.8912C38.929 39.4841 39.9 36.1117 39.9346 35.9387C39.8479 35.9041 33.4153 33.4483 33.346 26.0461Z" fill="white"/>
<path d="M27.1911 7.85181C28.873 5.75915 30.0173 2.90552 29.7052 0C27.2778 0.103768 24.2262 1.67759 22.475 3.73566C20.9319 5.55161 19.5448 8.50901 19.8916 11.2935C22.6311 11.501 25.4399 9.90989 27.1911 7.85181Z" fill="white"/>
<path d="M78.6341 48.5287H74.2648L71.8721 41.0228H63.5496L61.2782 48.5287H57.0303L65.2661 22.9844H70.3636L78.6341 48.5287ZM71.1612 37.8751L68.9939 31.2167C68.7685 30.5249 68.335 28.9338 67.7108 26.4087H67.6241C67.364 27.4983 66.9653 29.1067 66.4104 31.2167L64.2778 37.8751H71.1612Z" fill="white"/>
<path d="M99.804 39.1028C99.804 42.2331 98.9544 44.7062 97.2379 46.5222C95.7121 48.1479 93.8049 48.9435 91.5508 48.9435C89.1061 48.9435 87.3549 48.0787 86.2799 46.332V55.9997H82.1707V36.1626C82.1707 34.191 82.1187 32.1849 82.0146 30.1095H85.6211L85.8465 33.0323H85.9158C87.2856 30.8359 89.3662 29.729 92.1404 29.729C94.325 29.729 96.1282 30.5937 97.5847 32.3059C99.0758 34.0354 99.804 36.2837 99.804 39.1028ZM95.6254 39.2411C95.6254 37.4425 95.2266 35.9724 94.4117 34.8137C93.5274 33.603 92.3311 32.9977 90.84 32.9977C89.8343 32.9977 88.9154 33.3436 88.0831 34.0008C87.2682 34.6753 86.7134 35.54 86.4707 36.6296C86.3493 37.1312 86.2799 37.5462 86.2799 37.8748V40.9533C86.2799 42.285 86.6961 43.4264 87.511 44.3431C88.3259 45.2597 89.4009 45.7266 90.7186 45.7266C92.2617 45.7266 93.4581 45.1213 94.325 43.9453C95.1919 42.7519 95.6254 41.1954 95.6254 39.2411Z" fill="white"/>
<path d="M121.027 39.1028C121.027 42.2331 120.177 44.7062 118.461 46.5222C116.935 48.1479 115.028 48.9435 112.774 48.9435C110.329 48.9435 108.578 48.0787 107.503 46.332V55.9997H103.393V36.1626C103.393 34.191 103.341 32.1849 103.237 30.1095H106.844L107.069 33.0323H107.138C108.508 30.8359 110.589 29.729 113.363 29.729C115.548 29.729 117.351 30.5937 118.807 32.3059C120.298 34.0354 121.027 36.2837 121.027 39.1028ZM116.848 39.2411C116.848 37.4425 116.449 35.9724 115.634 34.8137C114.75 33.603 113.554 32.9977 112.063 32.9977C111.057 32.9977 110.138 33.3436 109.306 34.0008C108.491 34.6753 107.953 35.54 107.693 36.6296C107.572 37.1312 107.503 37.5462 107.503 37.8748V40.9533C107.503 42.285 107.919 43.4264 108.734 44.3431C109.549 45.2597 110.624 45.7266 111.941 45.7266C113.484 45.7266 114.698 45.1213 115.548 43.9453C116.432 42.7519 116.848 41.1954 116.848 39.2411Z" fill="white"/>
<path d="M144.781 41.3686C144.781 43.5477 144.018 45.3118 142.509 46.6781C140.845 48.1654 138.522 48.9091 135.539 48.9091C132.783 48.9091 130.581 48.373 128.916 47.318L129.87 43.9109C131.673 44.9659 133.649 45.502 135.799 45.502C137.343 45.502 138.556 45.1561 139.406 44.4643C140.273 43.7726 140.706 42.8386 140.706 41.6799C140.706 40.6422 140.342 39.7775 139.649 39.0684C138.938 38.3593 137.759 37.7021 136.112 37.0968C131.586 35.4192 129.349 32.9806 129.349 29.7811C129.349 27.6885 130.147 25.9763 131.725 24.6273C133.303 23.2956 135.401 22.6211 138.019 22.6211C140.342 22.6211 142.284 23.0189 143.827 23.8317L142.787 27.1523C141.33 26.3741 139.701 25.9763 137.863 25.9763C136.424 25.9763 135.279 26.3395 134.464 27.0313C133.788 27.6712 133.441 28.4321 133.441 29.3487C133.441 30.3518 133.84 31.1993 134.62 31.8392C135.297 32.4445 136.545 33.1017 138.348 33.8108C140.55 34.6928 142.163 35.7305 143.203 36.9238C144.261 38.1172 144.781 39.6045 144.781 41.3686Z" fill="white"/>
<path d="M158.374 33.1879H153.849V42.1293C153.849 44.3949 154.646 45.5364 156.241 45.5364C156.97 45.5364 157.576 45.4672 158.062 45.3461L158.183 48.4592C157.368 48.7532 156.311 48.9088 154.993 48.9088C153.363 48.9088 152.115 48.4073 151.196 47.4215C150.277 46.4357 149.826 44.7754 149.826 42.4579V33.1706H147.139V30.1095H149.826V26.737L153.849 25.5264V30.1095H158.374V33.1879Z" fill="white"/>
<path d="M178.73 39.1722C178.73 42.0085 177.915 44.326 176.302 46.142C174.603 48.0098 172.349 48.9437 169.54 48.9437C166.835 48.9437 164.668 48.0444 163.056 46.2631C161.443 44.4817 160.646 42.2161 160.646 39.4835C160.646 36.6299 161.478 34.2951 163.125 32.4792C164.789 30.6632 167.026 29.7466 169.835 29.7466C172.54 29.7466 174.724 30.6459 176.372 32.4446C177.949 34.174 178.73 36.4224 178.73 39.1722ZM174.482 39.2587C174.482 37.5638 174.118 36.1283 173.389 34.9177C172.522 33.4477 171.291 32.7213 169.696 32.7213C168.049 32.7213 166.783 33.4477 165.934 34.9177C165.188 36.1283 164.841 37.5984 164.841 39.3452C164.841 41.04 165.206 42.4928 165.934 43.6861C166.818 45.1562 168.066 45.8826 169.662 45.8826C171.222 45.8826 172.453 45.1389 173.355 43.6516C174.1 42.4063 174.482 40.9536 174.482 39.2587Z" fill="white"/>
<path d="M192.08 33.7068C191.681 33.6376 191.248 33.603 190.78 33.603C189.341 33.603 188.213 34.1392 187.433 35.2287C186.757 36.1799 186.41 37.4079 186.41 38.8606V48.5284H182.301V35.9032C182.301 33.776 182.266 31.839 182.18 30.1095H185.751L185.907 33.6376H186.029C186.462 32.427 187.139 31.4412 188.075 30.7148C188.994 30.0576 189.982 29.729 191.04 29.729C191.421 29.729 191.768 29.7636 192.063 29.7982L192.08 33.7068Z" fill="white"/>
<path d="M210.424 38.4457C210.424 39.1721 210.372 39.7947 210.268 40.2962H197.958C198.01 42.1122 198.6 43.513 199.744 44.4642C200.784 45.3117 202.119 45.7441 203.766 45.7441C205.587 45.7441 207.252 45.45 208.743 44.8793L209.384 47.7157C207.633 48.4766 205.57 48.8571 203.194 48.8571C200.333 48.8571 198.079 48.0097 196.45 46.3321C194.82 44.6545 194.005 42.3889 194.005 39.5698C194.005 36.8027 194.768 34.4852 196.294 32.6346C197.889 30.663 200.039 29.6772 202.744 29.6772C205.396 29.6772 207.425 30.663 208.777 32.6346C209.87 34.2258 210.424 36.1455 210.424 38.4457ZM206.506 37.3907C206.541 36.1801 206.263 35.1251 205.708 34.2431C204.998 33.1016 203.905 32.5309 202.449 32.5309C201.114 32.5309 200.021 33.0843 199.189 34.1912C198.513 35.0732 198.097 36.1455 197.975 37.3734L206.506 37.3907Z" fill="white"/>
<path d="M69.1842 13.8529H67.0342L65.8552 10.1691H61.7633L60.6363 13.8529H58.5557L62.5955 1.29688H65.0923L69.1842 13.8529ZM65.4911 8.61255L64.4334 5.32655C64.3294 4.99795 64.1213 4.20239 63.7919 2.95717H63.7572C63.6185 3.49331 63.4451 4.27157 63.1504 5.32655L62.1101 8.61255H65.4911Z" fill="white"/>
<path d="M79.3102 4.79053L75.8771 13.853H73.9179L70.5889 4.79053H72.7562L74.2993 9.58117C74.5594 10.3767 74.7848 11.1377 74.9582 11.8641H75.0102C75.1662 11.2069 75.3916 10.4459 75.6691 9.58117L77.1949 4.79053H79.3102Z" fill="white"/>
<path d="M86.6272 13.8529L86.4712 12.8152H86.4192C85.795 13.6453 84.9107 14.0604 83.7664 14.0604C82.1365 14.0604 80.9922 12.9189 80.9922 11.397C80.9922 9.16599 82.9341 8.00724 86.2978 8.00724V7.83429C86.2978 6.64095 85.6563 6.05293 84.4079 6.05293C83.5063 6.05293 82.726 6.27777 82.0325 6.72743L81.6164 5.41303C82.4486 4.89419 83.5063 4.63477 84.7373 4.63477C87.1127 4.63477 88.3091 5.87999 88.3091 8.38772V11.7256C88.3091 12.6422 88.3437 13.3513 88.4478 13.8875L86.6272 13.8529ZM86.3498 9.33893C84.1131 9.33893 82.9861 9.87507 82.9861 11.1722C82.9861 12.1234 83.5583 12.5903 84.3732 12.5903C85.3962 12.5903 86.3498 11.8121 86.3498 10.7398V9.33893Z" fill="white"/>
<path d="M92.7989 3.30289C92.1227 3.30289 91.6025 2.78405 91.6025 2.09226C91.6025 1.40047 92.14 0.898926 92.8336 0.898926C93.5271 0.898926 94.082 1.40047 94.0646 2.09226C94.0646 2.81864 93.5445 3.30289 92.7989 3.30289ZM91.8279 4.79024H93.8392V13.8354H91.8279V4.79024Z" fill="white"/>
<path d="M97.4287 0.639648H99.44V13.8355H97.4287V0.639648Z" fill="white"/>
<path d="M108.005 13.8526L107.849 12.8149H107.797C107.173 13.645 106.289 14.0601 105.144 14.0601C103.514 14.0601 102.37 12.9187 102.37 11.3967C102.37 9.1657 104.312 8.00696 107.676 8.00696V7.83401C107.676 6.64067 107.034 6.05265 105.786 6.05265C104.884 6.05265 104.104 6.27748 103.41 6.72715L102.994 5.39545C103.827 4.87661 104.884 4.61719 106.115 4.61719C108.491 4.61719 109.687 5.86241 109.687 8.37015V11.708C109.687 12.6247 109.722 13.3337 109.808 13.8699H108.005V13.8526ZM107.728 9.33865C105.491 9.33865 104.364 9.87479 104.364 11.1719C104.364 12.1231 104.936 12.5901 105.751 12.5901C106.774 12.5901 107.728 11.8118 107.728 10.7395V9.33865Z" fill="white"/>
<path d="M117.871 14.0604C116.588 14.0604 115.634 13.5242 115.01 12.452H114.976L114.854 13.8528H113.138C113.19 13.1264 113.207 12.3136 113.207 11.4143V0.639648H115.236V6.12208H115.27C115.877 5.11899 116.831 4.61744 118.166 4.61744C120.351 4.61744 121.876 6.48527 121.876 9.20054C121.876 12.0023 120.177 14.0604 117.871 14.0604ZM117.455 6.19126C116.293 6.19126 115.236 7.19435 115.236 8.59523V10.1863C115.236 11.4316 116.189 12.452 117.42 12.452C118.929 12.452 119.83 11.224 119.83 9.26972C119.83 7.43648 118.894 6.19126 117.455 6.19126Z" fill="white"/>
<path d="M124.858 0.639648H126.87V13.8355H124.858V0.639648Z" fill="white"/>
<path d="M137.845 9.80553H131.793C131.828 11.5177 132.973 12.4862 134.654 12.4862C135.556 12.4862 136.371 12.3306 137.099 12.0538L137.411 13.4547C136.562 13.8352 135.556 14.0082 134.377 14.0082C131.533 14.0082 129.852 12.2268 129.852 9.44234C129.852 6.67518 131.568 4.58252 134.152 4.58252C136.458 4.58252 137.931 6.2947 137.931 8.88891C137.931 9.2521 137.914 9.5634 137.845 9.80553ZM136.007 8.37007C136.007 6.96919 135.296 5.98339 134.013 5.98339C132.851 5.98339 131.95 6.98649 131.811 8.37007H136.007Z" fill="white"/>
<path d="M150.069 14.0601C147.416 14.0601 145.699 12.0885 145.699 9.40783C145.699 6.60608 147.45 4.61719 150.225 4.61719C152.843 4.61719 154.594 6.50231 154.594 9.25218C154.594 12.0712 152.791 14.0601 150.069 14.0601ZM150.155 6.08724C148.699 6.08724 147.763 7.45352 147.763 9.33865C147.763 11.2065 148.716 12.5555 150.138 12.5555C151.56 12.5555 152.513 11.1027 152.513 9.28677C152.496 7.45352 151.577 6.08724 150.155 6.08724Z" fill="white"/>
<path d="M165.43 13.8528H163.419V8.64707C163.419 7.03866 162.795 6.2431 161.581 6.2431C160.385 6.2431 159.57 7.26349 159.57 8.45682V13.8355H157.559V7.38455C157.559 6.58899 157.541 5.72426 157.489 4.79034H159.258L159.344 6.19121H159.396C159.934 5.22271 161.044 4.6001 162.275 4.6001C164.182 4.6001 165.43 6.05286 165.43 8.42223V13.8528Z" fill="white"/>
<path d="M178.625 6.31224H176.406V10.7051C176.406 11.8293 176.805 12.3827 177.585 12.3827C177.932 12.3827 178.244 12.3481 178.487 12.2962L178.539 13.8182C178.14 13.9738 177.62 14.043 176.978 14.043C175.383 14.043 174.447 13.161 174.447 10.8781V6.31224H173.129V4.8076H174.447V3.14731L176.423 2.54199V4.79031H178.643V6.31224" fill="white"/>
<path d="M189.305 13.8528H187.294V8.6817C187.294 7.056 186.67 6.24314 185.456 6.24314C184.416 6.24314 183.445 6.95223 183.445 8.38769V13.8355H181.434V0.639648H183.445V6.0702H183.48C184.121 5.0844 185.023 4.60014 186.202 4.60014C188.126 4.60014 189.305 6.08749 189.305 8.45687V13.8528Z" fill="white"/>
<path d="M199.604 9.80553H193.553C193.588 11.5177 194.732 12.4862 196.414 12.4862C197.316 12.4862 198.131 12.3306 198.859 12.0538L199.171 13.4547C198.321 13.8352 197.316 14.0082 196.137 14.0082C193.293 14.0082 191.611 12.2268 191.611 9.44234C191.611 6.67518 193.328 4.58252 195.911 4.58252C198.217 4.58252 199.691 6.2947 199.691 8.88891C199.691 9.2521 199.674 9.5634 199.604 9.80553ZM197.767 8.37007C197.767 6.96919 197.056 5.98339 195.773 5.98339C194.611 5.98339 193.692 6.98649 193.571 8.37007H197.767Z" fill="white"/>
</svg>
