<svg width="140" height="29" viewBox="0 0 140 29" fill="none" xmlns="http://www.w3.org/2000/svg">
<path d="M0 26.4285V26.1196L0.559042 25.9343C0.973148 25.7901 1.25267 25.5945 1.39761 25.3474C1.54254 25.1003 1.61501 24.7708 1.61501 24.3589C1.63572 23.1233 1.64607 21.8774 1.64607 20.6212C1.64607 19.365 1.64607 18.1089 1.64607 16.8527V15.6171C1.64607 14.3815 1.64607 13.1459 1.64607 11.9103C1.64607 10.6541 1.63572 9.40822 1.61501 8.17263C1.61501 7.76076 1.5529 7.43127 1.42866 7.18415C1.32514 6.93703 1.07667 6.7414 0.683274 6.59725L0 6.35013V6.04123H15.032L15.2494 11.1689H14.9389L13.1686 7.92551C12.9615 7.53424 12.7234 7.22534 12.4542 6.99881C12.1851 6.77229 11.8124 6.65903 11.3361 6.65903H6.33581C6.31511 8.12114 6.30475 9.61415 6.30475 11.1381C6.30475 12.6619 6.30475 14.1756 6.30475 15.6789H9.53478C10.011 15.6789 10.363 15.5759 10.5907 15.37C10.8185 15.164 11.0359 14.8654 11.243 14.4742L11.8952 13.3003H12.2058V18.7061H11.8952L11.2119 17.5322C11.0049 17.1616 10.7874 16.863 10.5597 16.6364C10.3526 16.4099 10.011 16.2967 9.53478 16.2967H6.30475C6.30475 17.7382 6.30475 19.1179 6.30475 20.4359C6.30475 21.7333 6.31511 23.01 6.33581 24.2662C6.33581 25.0694 6.72921 25.5945 7.51601 25.8416L8.44775 26.1196V26.4285H0Z" fill="white"/>
<path d="M19.607 26.8919C18.4061 26.8919 17.3915 26.5521 16.5633 25.8725C15.7558 25.1929 15.3521 24.2147 15.3521 22.938C15.3521 21.9701 15.849 21.0846 16.8428 20.2814C17.8367 19.4577 19.3999 18.8399 21.5326 18.4281C21.8639 18.3663 22.2366 18.3045 22.6507 18.2427C23.0648 18.1603 23.4996 18.078 23.9551 17.9956V15.5553C23.9551 14.155 23.7791 13.1768 23.4271 12.6208C23.0958 12.0442 22.5679 11.7558 21.8432 11.7558C21.3462 11.7558 20.9528 11.9206 20.663 12.2501C20.3731 12.559 20.1867 13.1047 20.1039 13.8872L20.0418 14.227C20.0004 15.1125 19.783 15.7612 19.3896 16.1731C18.9962 16.585 18.5096 16.7909 17.9299 16.7909C17.3915 16.7909 16.9464 16.6261 16.5944 16.2967C16.2424 15.9672 16.0664 15.5244 16.0664 14.9684C16.0664 14.1241 16.3563 13.4136 16.936 12.837C17.5365 12.2604 18.3233 11.8279 19.2964 11.5396C20.2696 11.2513 21.3255 11.1072 22.4643 11.1072C24.3071 11.1072 25.7254 11.5602 26.7193 12.4663C27.7338 13.3518 28.2411 14.8036 28.2411 16.8218V23.6484C28.2411 24.5751 28.6759 25.0385 29.5455 25.0385H30.2288L30.5083 25.2856C30.1149 25.7798 29.6801 26.1608 29.2039 26.4285C28.7484 26.6962 28.0962 26.8301 27.2472 26.8301C26.3362 26.8301 25.6115 26.6242 25.0732 26.2123C24.5556 25.7798 24.2139 25.2135 24.0483 24.5133C23.4271 25.1723 22.7853 25.7386 22.1227 26.2123C21.4808 26.6653 20.6423 26.8919 19.607 26.8919ZM21.5015 25.0076C21.9156 25.0076 22.2987 24.9149 22.6507 24.7296C23.0234 24.5236 23.4582 24.2147 23.9551 23.8029V18.6134C23.7481 18.6546 23.541 18.6958 23.334 18.7369C23.1269 18.7781 22.8888 18.8193 22.6196 18.8605C21.6672 19.1076 20.9011 19.5298 20.3213 20.127C19.7623 20.7036 19.4828 21.4861 19.4828 22.4746C19.4828 23.3189 19.6795 23.9573 20.0729 24.3898C20.4663 24.8017 20.9425 25.0076 21.5015 25.0076Z" fill="white"/>
<path d="M37.0484 26.8919C35.7233 26.8919 34.688 26.5624 33.9427 25.9034C33.218 25.2444 32.8556 24.1942 32.8556 22.7526V12.1883H30.7126V11.8794L31.458 11.7558C32.0999 11.6117 32.6486 11.4058 33.1041 11.1381C33.5803 10.8703 34.0462 10.51 34.5017 10.0569L37.0484 7.24593H37.359L37.2658 11.5705H40.7443V12.1883H37.2348V23.3086C37.2348 24.0294 37.3901 24.5751 37.7007 24.9458C38.0319 25.3165 38.446 25.5018 38.943 25.5018C39.3778 25.5018 39.7608 25.3989 40.0921 25.1929C40.4234 24.9664 40.7547 24.6678 41.086 24.2971L41.3965 24.606C40.9824 25.3062 40.413 25.8622 39.6884 26.2741C38.9637 26.6859 38.0837 26.8919 37.0484 26.8919Z" fill="white"/>
<path d="M50.0741 11.1072C51.4199 11.1072 52.5691 11.3852 53.5215 11.9412C54.4739 12.4766 55.1986 13.218 55.6956 14.1653C56.2132 15.0919 56.472 16.1525 56.472 17.3469C56.472 17.5734 56.4617 17.8103 56.4409 18.0574C56.4202 18.2839 56.3788 18.4898 56.3167 18.6752H47.0615C47.0822 20.8992 47.4756 22.5055 48.2417 23.494C49.0285 24.4619 50.188 24.9458 51.7201 24.9458C52.7554 24.9458 53.594 24.7811 54.2358 24.4516C54.8777 24.1221 55.4782 23.6381 56.0372 22.9997L56.3478 23.2778C55.7059 24.4104 54.8466 25.2959 53.77 25.9343C52.714 26.5727 51.4406 26.8919 49.9498 26.8919C48.4798 26.8919 47.1753 26.583 46.0365 25.9652C44.8978 25.3268 44.0074 24.4207 43.3656 23.2469C42.7237 22.0731 42.4028 20.6727 42.4028 19.0458C42.4028 17.3572 42.7755 15.926 43.5209 14.7522C44.2662 13.5578 45.2187 12.6517 46.3782 12.0339C47.5584 11.4161 48.7904 11.1072 50.0741 11.1072ZM49.9809 11.725C49.3805 11.725 48.8628 11.9103 48.428 12.281C48.0139 12.6311 47.6826 13.2694 47.4342 14.1961C47.2064 15.1022 47.0822 16.3893 47.0615 18.0574H52.3724C52.5794 15.8127 52.4966 14.1961 52.1239 13.2077C51.7512 12.2192 51.0369 11.725 49.9809 11.725Z" fill="white"/>
<path d="M78.8926 26.4285V26.1196L79.5444 25.8725C80.2066 25.6048 80.5377 25.0797 80.5377 24.2971V8.17263C80.5377 7.3489 80.2066 6.82377 79.5444 6.59725L78.8926 6.35013V6.04123H87.0872C89.2807 6.04123 91.1638 6.45309 92.7365 7.27682C94.3299 8.07996 95.5508 9.24347 96.3992 10.7674C97.2683 12.2707 97.7029 14.0829 97.7029 16.204C97.7029 18.3663 97.2373 20.2094 96.3061 21.7333C95.3749 23.2572 94.0712 24.4207 92.395 25.2238C90.7395 26.0269 88.784 26.4285 86.5284 26.4285H78.8926ZM85.1937 25.8107H86.5284C88.0184 25.8107 89.2186 25.5224 90.1291 24.9458C91.0396 24.3486 91.7018 23.3601 92.1157 21.9804C92.5502 20.58 92.7675 18.6649 92.7675 16.2349C92.7675 13.8049 92.5502 11.9 92.1157 10.5203C91.7018 9.11992 91.05 8.13144 90.1601 7.55483C89.2703 6.95763 88.1011 6.65903 86.6526 6.65903H85.1937V25.8107Z" fill="white"/>
<path d="M103.156 26.8919C101.956 26.8919 100.942 26.5521 100.115 25.8725C99.3075 25.1929 98.904 24.2147 98.904 22.938C98.904 21.9701 99.4006 21.0846 100.394 20.2814C101.387 19.4577 102.95 18.8399 105.081 18.4281C105.412 18.3663 105.785 18.3045 106.198 18.2427C106.612 18.1603 107.047 18.078 107.502 17.9956V15.5553C107.502 14.155 107.326 13.1768 106.974 12.6208C106.643 12.0442 106.116 11.7558 105.391 11.7558C104.895 11.7558 104.502 11.9206 104.212 12.2501C103.922 12.559 103.736 13.1047 103.653 13.8872L103.591 14.227C103.55 15.1125 103.332 15.7612 102.939 16.1731C102.546 16.585 102.06 16.7909 101.48 16.7909C100.942 16.7909 100.497 16.6261 100.146 16.2967C99.7938 15.9672 99.6179 15.5244 99.6179 14.9684C99.6179 14.1241 99.9076 13.4136 100.487 12.837C101.087 12.2604 101.873 11.8279 102.846 11.5396C103.819 11.2513 104.874 11.1072 106.012 11.1072C107.854 11.1072 109.271 11.5602 110.265 12.4663C111.279 13.3518 111.786 14.8036 111.786 16.8218V23.6484C111.786 24.5751 112.22 25.0385 113.089 25.0385H113.772L114.052 25.2856C113.658 25.7798 113.224 26.1608 112.748 26.4285C112.293 26.6962 111.641 26.8301 110.792 26.8301C109.882 26.8301 109.158 26.6242 108.62 26.2123C108.102 25.7798 107.761 25.2135 107.595 24.5133C106.974 25.1723 106.333 25.7386 105.671 26.2123C105.029 26.6653 104.191 26.8919 103.156 26.8919ZM105.05 25.0076C105.464 25.0076 105.847 24.9149 106.198 24.7296C106.571 24.5236 107.005 24.2147 107.502 23.8029V18.6134C107.295 18.6546 107.088 18.6958 106.881 18.7369C106.674 18.7781 106.436 18.8193 106.167 18.8605C105.215 19.1076 104.45 19.5298 103.87 20.127C103.312 20.7036 103.032 21.4861 103.032 22.4746C103.032 23.3189 103.229 23.9573 103.622 24.3898C104.015 24.8017 104.491 25.0076 105.05 25.0076Z" fill="white"/>
<path d="M120.588 26.8919C119.264 26.8919 118.229 26.5624 117.484 25.9034C116.76 25.2444 116.398 24.1942 116.398 22.7526V12.1883H114.256V11.8794L115.001 11.7558C115.642 11.6117 116.191 11.4058 116.646 11.1381C117.122 10.8703 117.587 10.51 118.043 10.0569L120.588 7.24593H120.898L120.805 11.5705H124.282V12.1883H120.774V23.3086C120.774 24.0294 120.929 24.5751 121.24 24.9458C121.571 25.3165 121.985 25.5018 122.481 25.5018C122.916 25.5018 123.299 25.3989 123.63 25.1929C123.961 24.9664 124.292 24.6678 124.623 24.2971L124.934 24.606C124.52 25.3062 123.951 25.8622 123.226 26.2741C122.502 26.6859 121.623 26.8919 120.588 26.8919Z" fill="white"/>
<path d="M133.606 11.1072C134.951 11.1072 136.1 11.3852 137.052 11.9412C138.003 12.4766 138.728 13.218 139.224 14.1653C139.742 15.0919 140 16.1525 140 17.3469C140 17.5734 139.99 17.8103 139.969 18.0574C139.949 18.2839 139.907 18.4898 139.845 18.6752H130.595C130.616 20.8992 131.009 22.5055 131.775 23.494C132.561 24.4619 133.72 24.9458 135.251 24.9458C136.286 24.9458 137.124 24.7811 137.765 24.4516C138.407 24.1221 139.007 23.6381 139.566 22.9997L139.876 23.2778C139.235 24.4104 138.376 25.2959 137.3 25.9343C136.244 26.5727 134.972 26.8919 133.482 26.8919C132.013 26.8919 130.709 26.583 129.571 25.9652C128.433 25.3268 127.543 24.4207 126.901 23.2469C126.26 22.073 125.939 20.6727 125.939 19.0458C125.939 17.3572 126.312 15.926 127.057 14.7522C127.802 13.5578 128.753 12.6517 129.912 12.0339C131.092 11.4161 132.323 11.1072 133.606 11.1072ZM133.513 11.725C132.913 11.725 132.396 11.9103 131.961 12.281C131.547 12.6311 131.216 13.2694 130.968 14.1961C130.74 15.1022 130.616 16.3893 130.595 18.0574H135.903C136.11 15.8127 136.027 14.1961 135.655 13.2077C135.282 12.2192 134.568 11.725 133.513 11.725Z" fill="white"/>
<path fill-rule="evenodd" clip-rule="evenodd" d="M64.0053 26.1485C65.5039 20.643 72.3155 18.2078 75.7044 18.0923C77.1515 14.9706 79.6376 7.83492 78.0055 4.26596C77.5669 3.09445 74.7568 0.67582 72.1076 4.95415C71.5484 5.72736 70.2435 8.28153 69.8065 12.3125C69.7136 13.1691 69.5708 13.7996 68.4493 13.7996C67.4032 13.7996 67.1489 12.8199 67.0874 12.3952C67.083 12.3645 67.079 12.3368 67.0751 12.3125C66.7753 10.4501 65.7505 7.64916 64.1793 5.95034C63.0354 4.71352 60.7324 4.79053 59.7849 5.56053C58.5376 6.57412 58.3781 9.44904 59.4803 11.3644C60.8694 11.1848 64.1164 11.9323 65.9922 16.3598C66.9236 18.5607 67.5682 22.8168 64.0053 21.8028C60.4037 20.7777 58.1219 14.4685 57.9817 14.0306C57.6884 14.2118 56.9819 14.7438 56.5023 15.4214C56.0228 16.099 55.4936 15.9796 55.2889 15.8353C55.0053 15.662 54.6082 15.0826 55.2889 14.1509C55.8264 13.4152 56.3666 13.0106 56.8623 12.6394L56.8623 12.6393C56.9944 12.5404 57.1232 12.4439 57.2481 12.3441C56.4214 10.7924 55.2367 6.91092 58.1412 3.99646C59.7849 2.58639 63.6185 1.21675 66.4031 5.17071C66.9752 6.02253 68.2752 8.08999 68.4493 9.5453C68.2631 7.98878 69.4313 3.20143 72.1076 1.15707C73.4902 0.0517978 77.0019 -1.24341 79.9876 2.41795C82.9733 6.07932 80.0746 14.6498 78.2521 18.4773C79.1029 18.7436 80.9584 19.641 81.5733 21.1002C81.6474 21.3279 81.7019 21.8923 81.3267 22.3273C80.7427 22.9241 80.2164 22.576 80.0263 22.3273C79.0672 20.8297 77.5253 20.3687 76.8743 20.3253C73.5676 25.3352 70.345 27.854 68.3223 28.5933C66.2996 29.3325 65.3685 28.7391 64.8706 28.3959C64.0662 27.8415 63.8245 26.8126 64.0053 26.1485ZM59.8235 13.7996C59.772 13.5718 59.8182 13.1851 60.4037 13.1306C61.7199 13.0082 64.0053 15.4214 64.8271 17.356C65.4745 18.8801 65.4395 19.5544 65.4191 19.9464C65.416 20.0056 65.4133 20.0584 65.4133 20.1067C65.431 20.2992 65.0407 20.7026 64.5805 20.5371C64.0053 20.3302 61.211 18.1934 59.8235 13.7996ZM66.1469 25.5758C69.1973 21.4274 73.2776 20.4938 74.752 20.1762C71.7547 24.3111 68.6623 26.487 67.5682 27.0051C67.262 27.2024 66.4979 27.5292 65.9922 27.1254C65.4797 26.7164 65.8761 25.9351 66.1469 25.5758Z" fill="url(#paint0_linear_825_5310)"/>
<defs>
<linearGradient id="paint0_linear_825_5310" x1="68.2699" y1="0" x2="68.2699" y2="28.9476" gradientUnits="userSpaceOnUse">
<stop stop-color="#7B2EFD"/>
<stop offset="0.485577" stop-color="#475FDB"/>
<stop offset="1" stop-color="#02A0AE"/>
</linearGradient>
</defs>
</svg>
