<svg width="97" height="62" viewBox="0 0 97 62" fill="none" xmlns="http://www.w3.org/2000/svg">
<path d="M163.261 21.8146C162.374 21.8932 160.387 21.812 159.53 20.8585C158.46 19.6667 154.392 17.9362 147.322 22.8523C141.666 26.7851 133.222 31.9301 129.707 34.011C126.569 36.1121 119.135 39.3447 114.501 35.4661C110.171 31.8412 112.613 26.7728 114.698 24.2637C114.974 23.9306 115.3 23.6435 115.643 23.3797L117.424 22.0116C117.733 21.774 118.058 21.5616 118.396 21.3662C124.445 17.863 134.402 9.89118 129.436 3.74222C124.329 -2.58204 109.652 5.9607 102.952 11.0226L95.8613 16.3157L78.9598 28.269C69.9299 34.4668 51.7217 50.2554 58.8468 57.8248C66.7191 66.188 79.2634 43.7906 56.8733 45.2393C54.2168 45.4112 50.025 46.0072 45.8365 46.5394C40.741 47.1867 29.3589 50.5736 22.7794 39.2542L17.3918 26.8641C16.2694 24.2828 11.5196 19.2887 1.49958 19.9625" stroke="white" stroke-width="3" stroke-linecap="round"/>
</svg>
