<svg width="104" height="61" viewBox="0 0 104 61" fill="none" xmlns="http://www.w3.org/2000/svg">
<path d="M91.4194 1.50042C93.9128 4.30874 96.3022 13.2219 85.9136 26.4081C82.7121 30.3635 77.4741 40.5508 82.1342 49.6562C86.7944 58.7616 93.1627 59.6151 95.7643 58.9036C99.433 57.9148 105.476 53.1996 100.298 42.2496C95.1203 31.2996 73.7079 35.8627 63.6489 39.513L50.2686 46.5182C45.0412 49.0703 32.9106 52.5258 26.2073 45.9307C19.504 39.3356 18.7997 34.1181 22.8644 30.1137C29.0868 27.5486 39.43 33.2605 23.2577 48.9609C18.9413 52.329 5.50382 56.7348 -13.7154 47.4139" stroke="white" stroke-width="3" stroke-linecap="round"/>
</svg>
